# xmcd CD database file
#
# Track frame offsets:
#	150
#	14892
#	31892
#	53782
#	72355
#	89747
#	104607
#	123287
#	141330
#	157375
#	176447
#
# Disc length: 2563 seconds
#
# Revision: 2
# Processed by: cddbd v1.5.2PL0 Copyright (c) Steve Scherf et al.
# Submitted via: CDex 1.79
#
DISCID=a50a010b
DTITLE=Big House - Travelin' Kind
DYEAR=1998
DGENRE=Country
TTITLE0=There'll Be No Teardrops Tonight
TTITLE1=Faith
TTITLE2=Tender Dreams
TTITLE3=Ain't Slept In Our Bed
TTITLE4=Never Again
TTITLE5=Second Hand Love
TTITLE6=Trouble
TTITLE7=Highway Of No Return
TTITLE8=This Far Down
TTITLE9=Travelin' Kind
TTITLE10=Don't Believe Everything You're Told
EXTD=YEAR: 1998
EXTT0=
EXTT1=
EXTT2=
EXTT3=
EXTT4=
EXTT5=
EXTT6=
EXTT7=
EXTT8=
EXTT9=
EXTT10=
PLAYORDER=
